<?xml version="1.0" encoding="utf-8"?>
<!-- Generator: Adobe Illustrator 27.3.1, SVG Export Plug-In . SVG Version: 6.00 Build 0)  -->
<svg version="1.1" id="Layer_1" xmlns="http://www.w3.org/2000/svg" xmlns:xlink="http://www.w3.org/1999/xlink" x="0px" y="0px"
	 viewBox="0 0 101.5 95.73" style="enable-background:new 0 0 101.5 95.73;" xml:space="preserve">
<style type="text/css">
	.st0{fill:#1A6B3C;}
	.st1{opacity:0.3;fill:url(#SVGID_1_);enable-background:new    ;}
	.st2{enable-background:new    ;}
	.st3{fill:#FFFFFF;}
	.st4{fill:#F5A623;}
	.st5{font-family:'Jost-Bold';}
	.st6{font-size:6.1408px;}
</style>
<g>
	<g>
		<path class="st0" d="M6.31,0h88.88c3.76,0,6.84,3.08,6.84,6.84v82.04c0,3.76-3.08,6.84-6.84,6.84H6.31
			c-3.76,0-6.84-3.08-6.84-6.84V6.84C-0.53,3.04,2.51,0,6.31,0z"/>
		
			<linearGradient id="SVGID_1_" gradientUnits="userSpaceOnUse" x1="-1147.1373" y1="1164.5079" x2="-1146.7955" y2="1164.1661" gradientTransform="matrix(300 0 0 -280 344140.6875 326062.2188)">
			<stop  offset="0" style="stop-color:#2D8A52"/>
			<stop  offset="1" style="stop-color:#0F4A29"/>
		</linearGradient>
		<path class="st1" d="M6.31,0h88.88c3.76,0,6.84,3.08,6.84,6.84v82.04c0,3.76-3.08,6.84-6.84,6.84H6.31
			c-3.76,0-6.84-3.08-6.84-6.84V6.84C-0.53,3.04,2.51,0,6.31,0z"/>
	</g>
	<g>
		<g>
			<g class="st2">
				<path class="st3" d="M15.98,61.97c-2.06-2.03-3.09-4.72-3.09-8.04V28.82c0-3.32,1.03-6.01,3.09-8.04s4.75-3.06,8.09-3.06
					c3.32,0,6.03,1.03,8.09,3.06c2.06,2.03,3.09,4.72,3.09,8.04v25.11c0,3.32-1.03,6.01-3.09,8.04s-4.75,3.06-8.09,3.06
					C20.75,65.03,18.03,64,15.98,61.97z M27.15,57.27c0.75-0.79,1.12-1.92,1.12-3.34V28.82c0-1.45-0.37-2.57-1.12-3.34
					c-0.75-0.79-1.78-1.19-3.09-1.19c-1.31,0-2.34,0.4-3.09,1.19c-0.75,0.79-1.12,1.92-1.12,3.34v25.11c0,1.45,0.37,2.57,1.12,3.34
					c0.75,0.79,1.78,1.19,3.09,1.19C25.37,58.46,26.4,58.06,27.15,57.27z"/>
				<path class="st3" d="M42,61.97c-2.06-2.03-3.09-4.72-3.09-8.04V28.82c0-3.32,1.03-6.01,3.09-8.04c2.06-2.03,4.75-3.06,8.09-3.06
					c3.32,0,6.03,1.03,8.09,3.06s3.09,4.72,3.09,8.04v25.11c0,3.32-1.03,6.01-3.09,8.04s-4.75,3.06-8.09,3.06S44.05,64,42,61.97z
					 M53.17,57.27c0.75-0.79,1.12-1.92,1.12-3.34V28.82c0-1.45-0.37-2.57-1.12-3.34c-0.75-0.79-1.78-1.19-3.09-1.19
					c-1.31,0-2.34,0.4-3.09,1.19c-0.75,0.79-1.12,1.92-1.12,3.34v25.11c0,1.45,0.37,2.57,1.12,3.34c0.75,0.79,1.78,1.19,3.09,1.19
					S52.42,58.06,53.17,57.27z"/>
				<path class="st3" d="M63.15,64.38l0.91-6.24c0.79,0.21,1.68,0.33,2.69,0.33c1.66,0,2.87-0.44,3.62-1.31s1.12-2.29,1.12-4.28
					v-34.5h6.97v35.75c0,3.3-0.98,5.92-2.94,7.93c-1.96,1.99-4.61,2.99-7.88,2.99C66.05,65.03,64.56,64.8,63.15,64.38z"/>
			</g>
			<circle class="st4" cx="86.09" cy="60.5" r="4.53"/>
		</g>
		<text transform="matrix(1 0 0 1 10.8718 75.7617)" class="st3 st5 st6">OKE-OGUN JOB BANK</text>
	</g>
</g>
</svg>
